<?xml version="1.0" encoding="UTF-8" ?>
<!DOCTYPE svg PUBLIC "-//W3C//DTD SVG 1.1//EN" "http://www.w3.org/Graphics/SVG/1.1/DTD/svg11.dtd">
<svg width="48pt" height="48pt" viewBox="0 0 48 48" version="1.1" xmlns="http://www.w3.org/2000/svg">
<g id="#0368cdff">
<path fill="#0368cd" opacity="1.00" d=" M 18.47 3.74 C 25.36 1.95 33.10 3.82 38.28 8.74 C 42.65 12.48 44.69 18.32 44.96 23.94 C 45.10 32.43 39.58 40.79 31.53 43.66 C 20.64 48.45 6.54 41.52 3.74 29.95 C 0.29 19.13 7.45 6.43 18.47 3.74 M 6.51 19.41 C 4.70 25.43 6.83 31.77 10.53 36.60 C 12.69 34.93 15.05 33.55 17.64 32.66 C 12.36 28.41 11.36 19.45 17.05 15.12 C 22.15 10.24 31.50 12.46 33.97 19.04 C 36.36 23.77 34.25 29.28 30.43 32.54 C 32.97 33.44 35.24 34.90 37.38 36.50 C 40.01 33.24 41.95 29.28 42.10 25.03 C 42.64 17.25 37.44 9.58 30.09 7.06 C 20.63 3.31 8.75 9.45 6.51 19.41 Z" />
</g>
</svg>
