<?xml version="1.0" encoding="UTF-8" ?>
<!DOCTYPE svg PUBLIC "-//W3C//DTD SVG 1.1//EN" "http://www.w3.org/Graphics/SVG/1.1/DTD/svg11.dtd">
<svg width="48pt" height="48pt" viewBox="0 0 48 48" version="1.1" xmlns="http://www.w3.org/2000/svg">
<g id="#888888ff">
<path fill="#888888" opacity="1.00" d=" M 23.37 0.00 L 24.75 0.00 C 32.15 0.43 39.51 4.08 43.67 10.33 C 46.55 14.42 47.87 19.44 48.00 24.40 L 48.00 24.89 C 47.64 36.99 37.19 47.58 25.06 48.00 L 23.18 48.00 C 10.83 47.78 0.25 36.91 0.00 24.64 L 0.00 23.17 C 0.35 10.89 11.02 0.14 23.37 0.00 M 6.72 12.66 C 2.13 19.27 2.54 28.27 6.45 35.09 C 10.06 31.53 14.63 29.22 19.49 27.91 C 15.98 26.01 13.61 21.93 14.40 17.91 C 14.93 12.51 20.62 8.37 25.94 9.64 C 31.11 10.45 34.54 16.02 33.59 21.03 C 33.14 24.12 30.68 26.31 28.37 28.14 C 33.46 28.70 37.76 31.68 41.47 35.00 C 46.92 26.48 45.12 14.20 37.05 7.97 C 28.14 0.21 12.92 2.68 6.72 12.66 Z" />
</g>
</svg>
