<?xml version="1.0" standalone="no"?><!DOCTYPE svg PUBLIC "-//W3C//DTD SVG 1.1//EN" "http://www.w3.org/Graphics/SVG/1.1/DTD/svg11.dtd"><svg t="1673857684127" class="icon" viewBox="0 0 1024 1024" version="1.1" xmlns="http://www.w3.org/2000/svg" p-id="8244" xmlns:xlink="http://www.w3.org/1999/xlink" width="32" height="32"><path d="M514.2 48C577 48 637.8 60.3 695 84.5c55.3 23.4 105 56.9 147.7 99.6 42.7 42.7 76.2 92.4 99.6 147.7 24.2 57.2 36.5 118.1 36.5 180.8s-12.3 123.6-36.5 180.8c-23.4 55.3-56.9 105-99.6 147.7-42.7 42.7-92.4 76.2-147.7 99.6-57.2 24.2-118.1 36.5-180.8 36.5s-123.6-12.3-180.8-36.5c-55.3-23.4-105-56.9-147.7-99.6-42.7-42.7-76.2-92.4-99.6-147.7C62 636.1 49.7 575.3 49.7 512.5S62 389 86.2 331.7c23.4-55.3 56.9-105 99.6-147.7 42.7-42.7 92.4-76.2 147.7-99.6C390.7 60.3 451.5 48 514.2 48m0-40C235.6 8 9.7 233.9 9.7 512.5S235.6 1017 514.2 1017s504.5-225.9 504.5-504.5S792.9 8 514.2 8z" fill="#cdcdcd" p-id="8245"></path><path d="M401.3 283.8c2.8 0 5.4 0.8 7.9 2.4l334.4 213.6c6 3.8 6.9 9.6 6.9 12.6s-0.9 8.8-6.9 12.6L409.2 738.8c-2.6 1.6-5.2 2.4-7.9 2.4-6.3 0-15.1-4.7-15.1-15.1V298.9c0-10.4 8.8-15.1 15.1-15.1m0-40c-28.6 0-55.1 22.8-55.1 55.1v427.3c0 32.3 26.5 55.1 55.1 55.1 9.9 0 20.1-2.7 29.5-8.7L765.2 559c33.8-21.6 33.8-71.1 0-92.7L430.8 252.6c-9.5-6-19.6-8.8-29.5-8.8z" fill="#cdcdcd" p-id="8246"></path></svg>